<?xml version="1.0" standalone="no"?>
<!DOCTYPE svg PUBLIC "-//W3C//DTD SVG 20010904//EN" "http://www.w3.org/TR/2001/REC-SVG-20010904/DTD/svg10.dtd">
<svg xmlns="http://www.w3.org/2000/svg" version="1.0" width="512.000000pt" height="512.000000pt" viewBox="0 0 512.000000 512.000000" preserveAspectRatio="xMidYMid meet">
<metadata>
Created by potrace 1.16, written by Peter Selinger 2001-2019
<meta name="Producer" content="Online-Convert"/></metadata>
<g transform="translate(0.000000,512.000000) scale(0.100000,-0.100000)" fill="#000000" stroke="none">
<path d="M592 5094 c-60 -30 -103 -80 -126 -147 -20 -60 -20 -99 0 -166 27 -92 58 -114 512 -361 l412 -224 0 -178 0 -178 -525 0 -526 0 -24 -25 c-18 -17 -25 -35 -25 -62 0 -34 659 -3603 681 -3685 19 -73 -69 -68 1152 -68 755 0 1105 3 1118 11 11 5 24 21 29 34 5 13 102 594 215 1292 114 697 208 1269 209 1269 0 1 55 7 121 13 227 22 394 83 568 209 184 132 324 323 397 540 177 533 -58 1106 -557 1356 -425 212 -948 126 -1283 -213 -133 -133 -219 -275 -274 -448 -21 -68 -46 -183 -46 -215 0 -5 -157 -8 -349 -8 l-349 0 -4 283 -3 282 -28 57 c-16 32 -45 70 -65 86 -37 29 -873 489 -987 544 -82 38 -169 39 -243 2z m633 -419 c259 -141 479 -265 490 -276 19 -18 20 -35 23 -289 l3 -270 -85 0 -86 0 0 233 0 232 -441 240 c-242 132 -451 250 -465 262 -52 48 -9 142 59 130 18 -3 243 -121 502 -262z m2730 -44 c44 -12 118 -39 164 -61 600 -287 724 -1065 244 -1522 -107 -102 -258 -185 -398 -222 -54 -14 -235 -39 -241 -33 -1 1 2 25 7 52 5 28 11 64 14 81 5 31 6 31 78 37 283 24 546 241 641 530 40 122 45 303 11 432 -68 257 -281 474 -537 545 -418 117 -851 -132 -957 -550 l-19 -75 -81 -3 -81 -3 6 33 c26 143 91 297 175 409 138 186 353 320 588 364 102 20 281 13 386 -14z m-65 -337 c65 -19 152 -64 199 -102 l33 -28 -156 -133 c-87 -72 -162 -134 -169 -137 -10 -3 -121 254 -173 398 -4 12 1 18 23 21 48 9 186 -2 243 -19z m-363 -254 l82 -200 -230 0 -231 0 7 33 c12 56 70 170 116 226 38 48 149 141 168 141 4 0 44 -90 88 -200z m753 -108 c35 -92 45 -189 31 -284 -7 -46 -18 -95 -24 -109 l-12 -26 -177 111 c-98 61 -177 116 -177 121 1 6 72 70 158 142 175 149 163 146 201 45z m-2890 -652 l0 -380 -382 2 -383 3 -67 355 c-36 195 -67 365 -67 378 l-1 22 450 0 450 0 0 -380z m350 0 l0 -380 -85 0 -85 0 0 380 0 380 85 0 85 0 0 -380z m884 318 c23 -223 126 -450 279 -614 l79 -84 -531 0 -531 0 0 380 0 380 349 0 348 0 7 -62z m348 -26 c12 -61 32 -118 69 -192 45 -91 64 -117 143 -195 104 -103 181 -151 302 -191 63 -20 83 -31 79 -41 -3 -8 -5 -23 -5 -34 0 -18 -9 -19 -133 -19 l-133 0 -79 52 c-220 144 -378 396 -410 652 l-7 56 78 0 79 0 17 -88z m704 61 c-3 -16 -22 -129 -42 -253 -20 -124 -37 -226 -38 -228 -6 -5 -123 40 -165 65 -66 38 -166 138 -207 204 -36 60 -66 137 -78 202 l-7 37 271 0 272 0 -6 -27z m362 -187 c78 -48 142 -92 142 -96 0 -20 -121 -114 -190 -149 -70 -35 -194 -70 -206 -59 -4 5 46 328 61 396 5 22 8 23 28 10 12 -8 86 -54 165 -102z m-2648 -940 c0 -196 -2 -215 -17 -220 -10 -3 -108 -28 -218 -57 -110 -28 -202 -53 -204 -55 -3 -3 209 -823 215 -832 1 -2 52 10 113 26 l111 30 0 -444 0 -444 265 0 265 0 0 157 0 158 278 -278 277 -277 308 308 307 307 -305 305 -305 305 -280 -280 -280 -280 0 302 0 302 35 7 c19 3 37 10 40 14 3 5 -13 76 -35 159 l-40 150 0 425 0 426 665 0 664 0 73 -29 c40 -16 99 -34 131 -41 41 -10 57 -18 56 -29 0 -9 -89 -560 -198 -1226 l-197 -1210 -992 -3 c-546 -1 -992 1 -992 4 0 9 -460 2482 -467 2512 l-5 22 366 0 366 0 0 -214z m350 45 l0 -169 -67 -16 c-38 -9 -76 -19 -85 -22 -17 -5 -18 8 -18 185 l0 191 85 0 85 0 0 -169z m-43 -546 c37 -137 43 -172 41 -244 l-3 -85 -219 -57 c-121 -32 -221 -57 -221 -56 -5 9 -125 480 -123 482 9 6 455 123 468 121 10 -1 27 -49 57 -161z m43 -915 l0 -400 -85 0 -85 0 0 378 0 377 78 22 c42 11 80 21 85 22 4 1 7 -179 7 -399z m918 -33 l172 -172 -178 -178 -177 -177 -175 175 -175 175 175 175 c96 96 177 175 180 175 3 0 83 -78 178 -173z"/>
<path d="M2176 2209 c-81 -221 -144 -405 -139 -409 21 -18 795 -292 802 -284 10 10 291 776 291 791 0 8 -781 303 -802 303 -2 0 -71 -181 -152 -401z m538 67 c98 -36 181 -67 183 -70 4 -4 -156 -447 -166 -459 -11 -12 -466 160 -463 175 2 7 39 113 84 234 l81 222 51 -18 c28 -10 132 -48 230 -84z"/>
</g>
</svg>
