<?xml version="1.0" standalone="no"?>
<!DOCTYPE svg PUBLIC "-//W3C//DTD SVG 20010904//EN" "http://www.w3.org/TR/2001/REC-SVG-20010904/DTD/svg10.dtd">
<svg xmlns="http://www.w3.org/2000/svg" version="1.0" width="512.000000pt" height="512.000000pt" viewBox="0 0 512.000000 512.000000" preserveAspectRatio="xMidYMid meet">
<metadata>
Created by potrace 1.16, written by Peter Selinger 2001-2019
<meta name="Producer" content="Online-Convert"/></metadata>
<g transform="translate(0.000000,512.000000) scale(0.100000,-0.100000)" fill="#000000" stroke="none">
<path d="M2230 5105 c-202 -27 -449 -91 -606 -156 -96 -40 -121 -93 -69 -144 32 -33 63 -32 160 6 164 63 383 116 579 139 48 6 172 11 275 11 257 -1 477 -34 710 -109 l86 -27 -440 -5 c-391 -4 -444 -7 -471 -22 -39 -21 -84 -74 -84 -97 0 -15 -16 -19 -102 -29 -176 -19 -318 -79 -463 -194 -147 -116 -263 -161 -455 -173 -200 -14 -368 -79 -515 -200 -66 -55 -184 -125 -209 -125 -14 0 106 142 214 254 127 131 258 241 395 330 125 83 135 92 135 137 0 29 -6 42 -26 58 -46 36 -68 29 -216 -71 -257 -172 -519 -432 -688 -683 l-49 -72 -73 -6 c-80 -6 -203 -40 -230 -64 -35 -31 -31 -60 28 -213 l56 -149 -35 -99 c-42 -118 -89 -306 -114 -457 -26 -159 -26 -623 0 -778 76 -450 253 -856 524 -1200 92 -118 348 -366 473 -459 232 -172 457 -290 715 -377 285 -95 512 -131 825 -131 288 0 527 35 770 112 416 133 762 347 1070 664 396 407 637 911 706 1474 22 185 15 552 -15 726 -51 300 -162 617 -295 843 l-36 62 0 370 c0 398 -1 404 -54 474 -13 17 -48 44 -77 60 l-54 30 -405 5 -405 5 -105 52 c-200 98 -426 168 -685 214 -156 28 -581 36 -745 14z m2315 -460 c17 -9 37 -26 44 -38 8 -16 11 -278 9 -1027 l-3 -1004 -53 174 c-30 96 -65 199 -79 228 -46 97 -141 125 -278 83 l-60 -18 -176 173 c-188 187 -201 194 -253 153 -20 -16 -26 -29 -26 -61 0 -38 7 -47 137 -179 75 -76 135 -141 132 -143 -2 -2 -112 -37 -244 -77 -250 -77 -287 -96 -319 -158 -35 -67 -31 -94 48 -351 42 -135 72 -246 66 -248 -26 -9 -77 -51 -97 -81 -40 -59 -33 -102 72 -439 53 -169 104 -320 113 -336 21 -36 93 -76 137 -76 17 0 73 13 125 30 52 16 96 27 99 24 7 -7 -120 -124 -214 -198 -295 -233 -657 -373 -1030 -401 l-90 -7 60 37 c250 154 420 395 480 681 22 104 22 303 0 404 -38 172 -39 195 -28 337 14 170 3 283 -38 408 -75 225 -238 416 -445 521 l-72 36 42 52 c23 28 71 101 106 161 67 113 158 215 244 274 24 17 94 54 155 82 l111 52 119 -116 c106 -104 123 -117 154 -117 44 0 75 26 83 68 7 33 1 39 -520 560 -289 290 -526 533 -526 540 0 9 210 12 991 12 873 0 995 -2 1024 -15z m-2073 -182 c32 -32 58 -60 58 -64 0 -12 -129 -59 -163 -59 -100 0 -304 -86 -418 -177 -168 -134 -251 -167 -468 -188 -226 -21 -356 -70 -515 -196 -153 -121 -240 -155 -446 -174 -80 -8 -158 -17 -175 -20 -30 -6 -30 -6 -63 81 -17 48 -30 89 -28 91 2 2 73 10 157 18 232 21 354 67 514 193 44 35 98 75 121 88 93 55 248 93 380 94 133 0 334 83 474 194 149 119 285 171 455 175 l59 1 58 -57z m270 -270 l77 -77 -67 -29 c-182 -80 -334 -219 -447 -411 -108 -183 -217 -283 -395 -360 -217 -96 -328 -204 -495 -482 -23 -38 -73 -97 -120 -141 -67 -63 -101 -85 -205 -136 -69 -33 -149 -76 -178 -95 l-53 -35 -72 78 c-40 43 -73 81 -75 85 -4 11 85 64 168 100 185 80 334 216 445 405 108 186 221 289 404 369 207 91 328 208 486 471 23 39 75 100 123 146 69 65 104 89 195 134 61 30 116 55 122 55 5 0 44 -35 87 -77z m-648 -140 c-10 -16 -32 -54 -50 -85 -18 -31 -46 -76 -62 -100 -37 -53 -160 -172 -202 -193 -19 -10 -79 -20 -153 -26 -222 -18 -376 -73 -518 -186 -167 -134 -252 -168 -469 -189 -80 -8 -157 -17 -171 -20 -24 -5 -27 -1 -57 76 -18 45 -32 85 -32 90 0 10 45 17 195 30 187 15 331 73 482 193 146 115 264 162 431 172 228 14 376 70 542 204 41 33 77 60 79 61 2 0 -5 -12 -15 -27z m928 -140 l78 -77 -108 -51 c-184 -88 -308 -204 -417 -390 -113 -192 -200 -273 -395 -366 -68 -33 -152 -80 -185 -103 -97 -70 -203 -190 -274 -311 -107 -183 -211 -276 -409 -371 -64 -30 -131 -66 -151 -81 l-35 -27 -77 84 -78 83 23 18 c13 10 80 46 149 79 209 100 332 213 449 412 109 183 200 265 403 364 215 104 327 207 448 413 104 176 206 269 388 355 52 25 98 45 104 45 5 1 44 -34 87 -76z m1800 -538 c35 -95 89 -301 114 -440 27 -144 27 -605 1 -750 -28 -154 -82 -350 -131 -479 -311 -804 -1020 -1381 -1870 -1521 -211 -35 -543 -35 -747 -1 -675 115 -1252 485 -1628 1046 -186 278 -314 601 -378 955 -25 142 -25 604 0 750 18 99 48 228 69 294 l11 34 33 -82 c18 -46 38 -89 45 -97 16 -20 73 -17 147 6 87 27 96 26 87 -7 -23 -90 -46 -222 -56 -327 -9 -100 -17 -135 -47 -206 -73 -175 -102 -354 -83 -518 17 -146 26 -171 66 -188 41 -17 76 -6 100 30 15 22 15 33 0 136 -14 92 -15 129 -6 203 11 92 48 237 61 237 4 0 109 -112 234 -249 233 -256 258 -277 304 -252 10 5 40 28 68 51 27 23 105 69 174 102 69 33 152 79 185 103 102 73 206 189 276 310 67 116 148 211 232 272 28 21 116 70 196 110 163 80 149 80 277 15 235 -119 398 -370 405 -625 2 -40 -1 -133 -6 -207 -7 -127 -6 -143 20 -260 51 -235 34 -414 -59 -605 -109 -226 -319 -400 -563 -467 -62 -17 -107 -21 -213 -21 -154 0 -243 19 -367 78 -112 52 -158 88 -288 219 -127 128 -198 179 -309 221 -190 72 -307 161 -450 343 -53 67 -59 72 -96 72 -30 0 -43 -6 -59 -26 -12 -15 -21 -37 -21 -49 0 -32 68 -132 146 -215 118 -125 229 -200 393 -266 124 -49 179 -88 280 -195 100 -108 174 -166 285 -225 131 -69 212 -94 391 -119 55 -8 141 -21 190 -30 127 -22 377 -30 517 -16 561 55 1082 338 1420 771 66 84 67 85 141 108 114 34 167 90 167 176 0 26 -60 241 -86 311 -4 10 28 24 110 49 127 40 169 67 197 131 26 57 24 98 -16 221 -19 60 -35 114 -35 120 0 6 17 23 38 37 73 48 72 35 72 589 1 547 -4 519 62 343z m-3504 -4 c-29 -32 -80 -103 -112 -158 -122 -206 -202 -281 -395 -374 -68 -33 -125 -59 -126 -57 -5 6 15 122 41 230 18 77 30 108 42 112 9 2 42 10 72 17 124 28 236 85 350 177 58 48 160 112 178 112 2 0 -20 -27 -50 -59z m2999 -463 c6 -7 63 -183 128 -392 98 -316 115 -380 104 -391 -8 -7 -57 -26 -111 -42 l-96 -30 -32 100 c-37 116 -70 158 -139 177 -52 14 -42 16 -305 -66 -114 -36 -209 -64 -211 -62 -1 2 -34 107 -73 233 -57 184 -69 233 -59 243 14 13 729 240 763 241 12 1 26 -5 31 -11z m-88 -1037 c50 -162 88 -298 84 -302 -9 -7 -595 -190 -599 -186 -8 8 -184 591 -182 599 4 12 590 197 600 189 3 -3 47 -138 97 -300z"/>
<path d="M3626 4301 c-137 -136 -150 -153 -150 -185 0 -49 27 -76 77 -76 38 0 47 7 175 133 74 72 141 146 148 164 16 38 7 73 -28 97 -48 34 -64 24 -222 -133z"/>
<path d="M3983 4148 c-229 -229 -253 -256 -253 -286 0 -44 38 -82 82 -82 29 0 58 25 280 248 244 244 248 248 248 289 0 33 -5 46 -26 62 -55 43 -60 39 -331 -231z"/>
<path d="M4131 3786 c-148 -149 -154 -156 -147 -187 10 -49 33 -69 80 -69 39 0 46 6 183 143 138 138 143 144 143 184 0 33 -5 46 -26 62 -52 41 -66 33 -233 -133z"/>
<path d="M2080 2301 c-95 -31 -163 -72 -231 -140 -134 -134 -188 -324 -144 -509 66 -280 355 -467 633 -408 194 41 340 163 407 340 31 83 31 111 0 141 -34 35 -86 34 -114 -1 -12 -15 -21 -32 -21 -38 0 -30 -62 -137 -104 -178 -147 -147 -374 -152 -526 -11 -215 199 -148 540 127 643 89 33 206 26 295 -18 60 -29 168 -127 168 -151 0 -10 46 -31 69 -31 10 0 30 9 45 21 41 32 36 84 -13 146 -81 103 -176 168 -292 198 -76 21 -230 18 -299 -4z"/>
</g>
</svg>
