<?xml version="1.0" standalone="no"?>
<!DOCTYPE svg PUBLIC "-//W3C//DTD SVG 20010904//EN" "http://www.w3.org/TR/2001/REC-SVG-20010904/DTD/svg10.dtd">
<svg xmlns="http://www.w3.org/2000/svg" version="1.0" width="512.000000pt" height="512.000000pt" viewBox="0 0 512.000000 512.000000" preserveAspectRatio="xMidYMid meet">
<metadata>
Created by potrace 1.16, written by Peter Selinger 2001-2019
<meta name="Producer" content="Online-Convert"/></metadata>
<g transform="translate(0.000000,512.000000) scale(0.100000,-0.100000)" fill="#000000" stroke="none">
<path d="M2912 5104 c-227 -61 -394 -239 -446 -475 -5 -22 -14 -28 -61 -38 -202 -45 -385 -231 -440 -446 -18 -70 -20 -202 -4 -277 14 -68 69 -188 109 -239 l32 -39 -309 -1 c-258 0 -319 -3 -374 -17 -193 -51 -349 -235 -408 -482 -11 -47 -106 -516 -212 -1043 l-192 -957 -274 0 -275 0 -29 -29 -29 -29 0 -171 c0 -144 3 -179 19 -221 37 -98 119 -170 226 -199 30 -8 80 -48 200 -157 88 -81 195 -177 238 -215 l77 -69 1799 0 1799 0 50 43 c27 23 133 119 236 212 161 146 196 173 246 191 109 39 175 99 211 195 16 41 19 78 19 220 l0 171 -29 29 -29 29 -274 0 -274 0 -193 963 c-106 529 -204 1004 -216 1054 -60 237 -215 415 -404 465 -55 14 -116 17 -373 17 l-308 1 35 49 c45 62 89 161 104 229 16 75 14 207 -4 277 -53 207 -219 383 -417 440 -32 9 -58 22 -58 29 0 33 65 138 115 185 65 61 139 98 227 112 84 14 118 44 118 107 0 35 -6 49 -29 73 -26 26 -36 29 -88 28 -32 0 -82 -7 -111 -15z m-190 -741 c160 -75 246 -218 236 -392 -8 -142 -102 -276 -235 -339 -52 -24 -70 -27 -163 -27 -93 0 -111 3 -163 27 -80 38 -157 114 -198 196 -104 211 7 473 235 551 90 31 200 25 288 -16z m920 -993 c93 -26 186 -121 233 -238 27 -66 168 -741 163 -777 -2 -11 -21 -30 -47 -44 -114 -63 -261 -3 -307 126 -8 22 -13 82 -14 143 0 171 -35 266 -130 361 -25 25 -77 61 -116 80 -66 32 -74 34 -179 34 -90 0 -120 -4 -165 -23 -103 -41 -191 -131 -239 -244 l-26 -63 -5 -415 c-4 -278 -9 -423 -17 -441 -82 -184 -341 -172 -409 18 -10 29 -13 127 -14 418 0 414 -4 454 -57 545 -41 69 -112 134 -189 171 -66 32 -74 34 -179 34 -90 0 -120 -4 -165 -23 -104 -41 -192 -133 -237 -244 -21 -52 -27 -87 -33 -203 -7 -150 -13 -173 -55 -224 -88 -104 -259 -97 -338 15 l-27 39 64 320 c61 302 89 407 124 465 53 86 113 138 191 166 46 17 2114 20 2173 4z m-1625 -532 c53 -23 92 -60 118 -111 l25 -51 0 -377 c0 -242 4 -397 11 -431 48 -223 263 -373 485 -338 166 27 295 139 344 298 18 59 20 94 20 439 0 240 4 390 11 418 6 24 27 63 47 86 105 122 285 100 357 -44 22 -45 25 -64 25 -153 0 -124 13 -190 52 -268 97 -192 343 -284 541 -201 33 14 36 13 41 -3 3 -9 48 -231 101 -492 52 -261 97 -485 100 -497 l5 -23 -1738 0 -1739 0 105 528 c58 290 106 528 107 530 1 1 31 -11 67 -28 163 -76 342 -53 471 60 102 90 147 201 147 362 0 54 5 119 11 143 14 55 70 122 123 146 47 21 122 24 163 7z m2901 -2031 c-3 -47 -12 -85 -23 -105 -40 -67 148 -62 -2335 -62 -2483 0 -2295 -5 -2335 62 -11 20 -20 58 -23 105 l-5 73 2363 0 2363 0 -5 -73z m-408 -381 c0 -2 -52 -52 -117 -110 l-116 -106 -1717 0 -1717 0 -116 106 c-65 58 -117 108 -117 110 0 2 878 4 1950 4 1073 0 1950 -2 1950 -4z"/>
</g>
</svg>
